<svg style="position: absolute; width: 0; height: 0; overflow: hidden;" version="1.1" xmlns="http://www.w3.org/2000/svg" xmlns:xlink="http://www.w3.org/1999/xlink">
<defs>
<symbol id="icon-clock" viewBox="0 0 30 32">
<title>clock</title>
<path d="M14.848 5.28q-4.416 0-7.552 3.136t-3.136 7.584 3.136 7.584 7.552 3.104 7.584-3.104 3.136-7.584-3.136-7.584-7.584-3.136zM14.88 1.696q5.888 0 10.080 4.192t4.192 10.112-4.192 10.080-10.080 4.224-10.112-4.224-4.192-10.080 4.192-10.112 10.112-4.192zM19.712 18.272l-2.56 2.56-3.488-3.552q-0.608-0.544-0.608-1.312v-7.136h3.616v6.368z"></path>
</symbol>
<symbol id="icon-calendar" viewBox="0 0 30 32">
<title>calendar</title>
<path d="M2.272 29.728h5.152v-5.152h-5.152v5.152zM8.576 29.728h5.696v-5.152h-5.696v5.152zM2.272 23.424h5.152v-5.696h-5.152v5.696zM8.576 23.424h5.696v-5.696h-5.696v5.696zM2.272 16.576h5.152v-5.152h-5.152v5.152zM15.424 29.728h5.728v-5.152h-5.728v5.152zM8.576 16.576h5.696v-5.152h-5.696v5.152zM22.272 29.728h5.152v-5.152h-5.152v5.152zM15.424 23.424h5.728v-5.696h-5.728v5.696zM9.152 8v-5.152q0-0.224-0.192-0.384t-0.384-0.192h-1.152q-0.224 0-0.384 0.192t-0.192 0.384v5.152q0 0.224 0.192 0.416t0.384 0.16h1.152q0.224 0 0.384-0.16t0.192-0.416zM22.272 23.424h5.152v-5.696h-5.152v5.696zM15.424 16.576h5.728v-5.152h-5.728v5.152zM22.272 16.576h5.152v-5.152h-5.152v5.152zM22.848 8v-5.152q0-0.224-0.16-0.384t-0.416-0.192h-1.12q-0.224 0-0.416 0.192t-0.16 0.384v5.152q0 0.224 0.16 0.416t0.416 0.16h1.12q0.256 0 0.416-0.16t0.16-0.416zM29.728 6.848v22.88q0 0.928-0.704 1.6t-1.6 0.672h-25.152q-0.928 0-1.6-0.672t-0.672-1.6v-22.88q0-0.928 0.672-1.6t1.6-0.672h2.304v-1.728q0-1.184 0.832-2.016t2.016-0.832h1.152q1.184 0 2.016 0.832t0.832 2.016v1.728h6.848v-1.728q0-1.184 0.864-2.016t2.016-0.832h1.12q1.184 0 2.048 0.832t0.832 2.016v1.728h2.272q0.928 0 1.6 0.672t0.704 1.6z"></path>
</symbol>
<symbol id="icon-author" viewBox="0 0 23 32">
<title>author</title>
<path d="M11.296 15.968q4.448 0 7.584 3.168t3.136 7.552q0 1.504-1.056 2.56t-2.528 1.056h-14.272q-1.472 0-2.528-1.056t-1.056-2.56q0-4.416 3.136-7.552t7.584-3.168zM5.952 7.040q0-5.344 5.344-5.344 5.376 0 5.376 5.344 0 5.376-5.376 5.376-5.344 0-5.344-5.376z"></path>
</symbol>
</defs>
</svg>
